<?xml version="1.0" encoding="UTF-8" standalone="no"?>
<!-- Uploaded to: SVG Repo, www.svgrepo.com, Generator: SVG Repo Mixer Tools -->

<svg
   fill="#000000"
   width="800px"
   height="800px"
   viewBox="0 0 32 32"
   version="1.1"
   id="svg1"
   sodipodi:docname="aws.svg"
   inkscape:version="1.4.2 (ebf0e940d0, 2025-05-08)"
   xmlns:inkscape="http://www.inkscape.org/namespaces/inkscape"
   xmlns:sodipodi="http://sodipodi.sourceforge.net/DTD/sodipodi-0.dtd"
   xmlns="http://www.w3.org/2000/svg"
   xmlns:svg="http://www.w3.org/2000/svg">
  <defs
     id="defs1" />
  <sodipodi:namedview
     id="namedview1"
     pagecolor="#ffffff"
     bordercolor="#000000"
     borderopacity="0.25"
     inkscape:showpageshadow="2"
     inkscape:pageopacity="0.0"
     inkscape:pagecheckerboard="0"
     inkscape:deskcolor="#d1d1d1"
     inkscape:zoom="1"
     inkscape:cx="400"
     inkscape:cy="400"
     inkscape:window-width="1920"
     inkscape:window-height="1011"
     inkscape:window-x="0"
     inkscape:window-y="0"
     inkscape:window-maximized="1"
     inkscape:current-layer="svg1" />
  <title
     id="title1">amazonaws</title>
  <path
     d="M29.468 19.695c-0.419-0.537-2.77-0.258-3.836-0.129-0.318 0.040-0.368-0.24-0.079-0.449 0.893-0.569 1.981-0.907 3.148-0.907 0.778 0 1.52 0.15 2.201 0.423l-0.040-0.014c0.026 0.208 0.041 0.449 0.041 0.693 0 1.703-0.728 3.236-1.89 4.304l-0.004 0.004c-0.268 0.23-0.528 0.11-0.408-0.188 0.399-0.986 1.285-3.207 0.867-3.736zM28.102 21.25c-3.379 2.32-7.559 3.705-12.061 3.705-0.025 0-0.050-0-0.075-0h0.004c-0.034 0-0.074 0-0.113 0-5.663 0-10.825-2.144-14.718-5.665l0.019 0.017c-0.308-0.278-0.030-0.658 0.339-0.438 4.257 2.474 9.368 3.935 14.82 3.935 0 0 0.001 0 0.002 0h-0c4.087-0.023 7.97-0.87 11.499-2.385l-0.193 0.073c0.548-0.25 1.016 0.358 0.478 0.757zM26.219 16.408c-0.001 0-0.003 0-0.005 0-0.543 0-1.070-0.065-1.575-0.188l0.045 0.009c-0.432-0.090-0.815-0.228-1.171-0.411l0.025 0.012c-0.217-0.084-0.369-0.291-0.369-0.534 0-0.008 0-0.017 0.001-0.025l-0 0.001v-0.508c0-0.208 0.080-0.308 0.228-0.308 0.064 0 0.126 0.011 0.184 0.031l-0.004-0.001c0.060 0.020 0.15 0.060 0.25 0.1 0.313 0.142 0.679 0.262 1.061 0.342l0.035 0.006c0.356 0.076 0.766 0.12 1.185 0.12h0c0.047 0.003 0.102 0.005 0.157 0.005 0.476 0 0.923-0.124 1.31-0.341l-0.014 0.007c0.313-0.191 0.518-0.531 0.518-0.919 0-0.010-0-0.019-0-0.029l0 0.001c0-0.008 0-0.018 0-0.028 0-0.26-0.102-0.496-0.269-0.67l0 0c-0.28-0.238-0.618-0.417-0.99-0.514l-0.018-0.004-1.444-0.449c-0.645-0.168-1.191-0.526-1.589-1.009l-0.004-0.005c-0.309-0.395-0.497-0.898-0.499-1.444v-0.001c-0-0.013-0-0.028-0-0.043 0-0.39 0.1-0.756 0.276-1.075l-0.006 0.011c0.183-0.326 0.424-0.598 0.711-0.811l0.007-0.005c0.294-0.226 0.64-0.403 1.014-0.512l0.022-0.006c0.36-0.108 0.774-0.17 1.203-0.17 0.018 0 0.037 0 0.055 0l-0.003-0c0.010-0 0.023-0 0.035-0 0.223 0 0.442 0.015 0.658 0.043l-0.025-0.003c0.228 0.030 0.437 0.070 0.646 0.11 0.2 0.050 0.389 0.1 0.568 0.158 0.161 0.050 0.3 0.111 0.43 0.185l-0.011-0.006c0.12 0.061 0.22 0.145 0.298 0.247l0.002 0.002c0.056 0.083 0.090 0.186 0.090 0.297 0 0.011-0 0.022-0.001 0.033l0-0.002v0.468c0 0.21-0.080 0.319-0.23 0.319-0.141-0.017-0.269-0.059-0.383-0.123l0.005 0.003c-0.542-0.246-1.175-0.389-1.842-0.389-0.025 0-0.049 0-0.074 0.001l0.004-0c-0.046-0.003-0.1-0.005-0.154-0.005-0.428 0-0.831 0.105-1.186 0.29l0.014-0.007c-0.283 0.17-0.47 0.476-0.47 0.826 0 0.021 0.001 0.042 0.002 0.063l-0-0.003c-0 0.006-0 0.013-0 0.020 0 0.271 0.115 0.516 0.299 0.687l0.001 0.001c0.308 0.247 0.674 0.437 1.074 0.544l0.021 0.005 1.415 0.447c0.62 0.163 1.147 0.499 1.541 0.953l0.003 0.004c0.286 0.374 0.458 0.848 0.458 1.363 0 0.011-0 0.022-0 0.033l0-0.002c0 0.009 0 0.021 0 0.032 0 0.409-0.095 0.796-0.265 1.139l0.007-0.015c-0.183 0.348-0.428 0.641-0.722 0.873l-0.006 0.004c-0.313 0.245-0.682 0.437-1.083 0.552l-0.023 0.006c-0.417 0.132-0.897 0.208-1.394 0.208-0.011 0-0.022-0-0.032-0h0.002zM13.421 16.14c-0.017 0.002-0.037 0.003-0.057 0.003-0.121 0-0.233-0.038-0.324-0.104l0.002 0.001c-0.101-0.104-0.175-0.236-0.209-0.383l-0.001-0.005-2.34-7.701c-0.042-0.116-0.074-0.251-0.089-0.392l-0.001-0.008c-0.002-0.010-0.002-0.021-0.002-0.032 0-0.121 0.098-0.219 0.219-0.219 0.008 0 0.015 0 0.023 0.001l-0.001-0h0.977c0.019-0.002 0.042-0.004 0.065-0.004 0.121 0 0.233 0.039 0.324 0.105l-0.002-0.001c0.098 0.105 0.169 0.237 0.199 0.384l0.001 0.005 1.675 6.594 1.554-6.594c0.022-0.152 0.090-0.286 0.189-0.39l-0 0c0.102-0.063 0.226-0.101 0.358-0.101 0.014 0 0.029 0 0.043 0.001l-0.002-0h0.796c0.018-0.002 0.039-0.003 0.061-0.003 0.126 0 0.243 0.038 0.341 0.104l-0.002-0.001c0.101 0.102 0.169 0.236 0.188 0.386l0 0.003 1.574 6.674 1.723-6.674c0.034-0.151 0.104-0.283 0.2-0.39l-0.001 0.001c0.099-0.063 0.219-0.101 0.348-0.101 0.014 0 0.028 0 0.042 0.001l-0.002-0h0.927c0.009-0.001 0.018-0.002 0.028-0.002 0.123 0 0.223 0.1 0.223 0.223 0 0.010-0.001 0.020-0.002 0.030l0-0.001c-0.003 0.059-0.011 0.113-0.022 0.166l0.001-0.007c-0.018 0.095-0.042 0.179-0.073 0.259l0.003-0.010-2.4 7.7c-0.032 0.153-0.106 0.285-0.21 0.388l-0 0c-0.097 0.063-0.216 0.101-0.344 0.101-0.012 0-0.024-0-0.036-0.001l0.002 0h-0.857c-0.018 0.002-0.040 0.003-0.062 0.003-0.126 0-0.243-0.038-0.34-0.104l0.002 0.001c-0.1-0.106-0.168-0.243-0.187-0.396l-0-0.003-1.545-6.424-1.535 6.414c-0.025 0.155-0.092 0.291-0.188 0.4l0.001-0.001c-0.096 0.064-0.215 0.102-0.342 0.102-0.020 0-0.040-0.001-0.059-0.003l0.002 0zM5.421 15.064c0.369-0.004 0.721-0.070 1.048-0.187l-0.023 0.007c0.377-0.133 0.696-0.352 0.944-0.634l0.002-0.002c0.155-0.177 0.273-0.391 0.337-0.628l0.003-0.011c0.063-0.254 0.1-0.545 0.1-0.845 0-0.007-0-0.015-0-0.022v0.001-0.418c-0.247-0.064-0.558-0.124-0.875-0.165l-0.042-0.005c-0.281-0.038-0.606-0.059-0.935-0.060h-0.001c-0.054-0.005-0.117-0.007-0.181-0.007-0.488 0-0.94 0.152-1.312 0.411l0.007-0.005c-0.3 0.256-0.489 0.634-0.489 1.057 0 0.031 0.001 0.061 0.003 0.092l-0-0.004c-0.003 0.033-0.004 0.071-0.004 0.11 0 0.366 0.142 0.699 0.373 0.947l-0.001-0.001c0.246 0.231 0.577 0.373 0.942 0.373 0.036 0 0.072-0.001 0.108-0.004l-0.005 0zM9.465 13.549c-0.001 0.023-0.001 0.051-0.001 0.079 0 0.287 0.040 0.565 0.116 0.829l-0.005-0.021c0.102 0.283 0.21 0.52 0.333 0.747l-0.014-0.028c0.043 0.064 0.069 0.143 0.070 0.228v0c-0.013 0.128-0.085 0.236-0.188 0.299l-0.002 0.001-0.628 0.418c-0.072 0.053-0.162 0.086-0.259 0.090l-0.001 0c-0.118-0.008-0.222-0.060-0.298-0.139l-0-0c-0.129-0.139-0.248-0.292-0.351-0.455l-0.008-0.013q-0.167-0.287-0.309-0.588c-0.68 0.841-1.712 1.374-2.868 1.374-0.021 0-0.043-0-0.064-0.001l0.003 0c-0.043 0.002-0.094 0.004-0.145 0.004-0.713 0-1.363-0.274-1.849-0.722l0.002 0.002c-0.457-0.462-0.739-1.098-0.739-1.8 0-0.040 0.001-0.080 0.003-0.119l-0 0.006c-0.001-0.028-0.002-0.062-0.002-0.095 0-0.783 0.351-1.483 0.904-1.953l0.004-0.003c0.612-0.488 1.396-0.783 2.249-0.783 0.067 0 0.134 0.002 0.2 0.005l-0.009-0c0.375 0.003 0.741 0.032 1.099 0.085l-0.043-0.005c0.369 0.050 0.749 0.13 1.146 0.22v-0.728c0.007-0.067 0.011-0.144 0.011-0.222 0-0.521-0.181-0.999-0.483-1.376l0.003 0.004c-0.38-0.293-0.864-0.47-1.389-0.47-0.082 0-0.164 0.004-0.244 0.013l0.010-0.001c-0.002 0-0.004 0-0.006 0-0.38 0-0.749 0.047-1.102 0.135l0.031-0.007c-0.423 0.102-0.782 0.218-1.129 0.358l0.053-0.019c-0.094 0.044-0.21 0.088-0.329 0.124l-0.020 0.005c-0.047 0.016-0.101 0.026-0.157 0.029l-0.001 0c-0.14 0-0.21-0.1-0.21-0.308v-0.488c-0.002-0.017-0.002-0.036-0.002-0.056 0-0.107 0.027-0.208 0.074-0.297l-0.002 0.003c0.075-0.089 0.168-0.16 0.275-0.207l0.005-0.002c0.359-0.183 0.778-0.338 1.215-0.441l0.039-0.008c0.45-0.12 0.966-0.189 1.498-0.189 0.020 0 0.040 0 0.060 0l-0.003-0c0.092-0.008 0.199-0.013 0.308-0.013 0.876 0 1.68 0.31 2.308 0.825l-0.006-0.005c0.519 0.579 0.836 1.349 0.836 2.193 0 0.091-0.004 0.18-0.011 0.269l0.001-0.012v3.227z"
     id="path1"
     style="fill:#ffffff" />
</svg>
