<?xml version="1.0" encoding="UTF-8" standalone="no"?>
<!-- Uploaded to: SVG Repo, www.svgrepo.com, Generator: SVG Repo Mixer Tools -->

<svg
   fill="#000000"
   width="800px"
   height="800px"
   viewBox="0 0 32 32"
   id="icon"
   version="1.1"
   sodipodi:docname="multi-cloud.svg"
   inkscape:version="1.4.2 (ebf0e940d0, 2025-05-08)"
   xmlns:inkscape="http://www.inkscape.org/namespaces/inkscape"
   xmlns:sodipodi="http://sodipodi.sourceforge.net/DTD/sodipodi-0.dtd"
   xmlns="http://www.w3.org/2000/svg"
   xmlns:svg="http://www.w3.org/2000/svg">
  <sodipodi:namedview
     id="namedview1"
     pagecolor="#ffffff"
     bordercolor="#000000"
     borderopacity="0.25"
     inkscape:showpageshadow="2"
     inkscape:pageopacity="0.0"
     inkscape:pagecheckerboard="0"
     inkscape:deskcolor="#d1d1d1"
     inkscape:zoom="0.34706351"
     inkscape:cx="-397.62175"
     inkscape:cy="504.23048"
     inkscape:window-width="1920"
     inkscape:window-height="1011"
     inkscape:window-x="0"
     inkscape:window-y="0"
     inkscape:window-maximized="1"
     inkscape:current-layer="icon" />
  <defs
     id="defs1">
    <style
       id="style1">
      .cls-1 {
        fill: none;
      }
    </style>
  </defs>
  <circle
     cx="9"
     cy="6"
     r="1"
     id="circle1"
     style="fill:#ffffff" />
  <path
     d="M26,2H6A2,2,0,0,0,4,4V8a2,2,0,0,0,2,2h9v4h2V10h9a2,2,0,0,0,2-2V4A2,2,0,0,0,26,2Zm0,6H6V4H26Z"
     transform="translate(0 0)"
     id="path1"
     style="fill:#ffffff" />
  <polygon
     points="17 28 17 26 15 26 15 28 4 28 4 30 28 30 28 28 17 28"
     id="polygon1"
     style="fill:#ffffff" />
  <circle
     id="machine"
     cx="9"
     cy="20"
     r="1"
     style="fill:#ffffff" />
  <path
     id="dedicated_host"
     data-name="dedicated host"
     d="M6,24H26a2,2,0,0,0,2-2V18a2,2,0,0,0-2-2H6a2,2,0,0,0-2,2v4A2,2,0,0,0,6,24Zm0-6H26v4H6Z"
     transform="translate(0 0)"
     style="fill:#ffffff" />
  <rect
     id="_Transparent_Rectangle_"
     data-name="&lt;Transparent Rectangle&gt;"
     class="cls-1"
     width="32"
     height="32" />
</svg>
