<?xml version="1.0" encoding="UTF-8" standalone="no"?>
<!-- Uploaded to: SVG Repo, www.svgrepo.com, Generator: SVG Repo Mixer Tools -->

<svg
   fill="#000000"
   height="800px"
   version="1.1"
   viewBox="0 0 32 32"
   width="800px"
   id="svg1"
   sodipodi:docname="scikitlearn.svg"
   inkscape:version="1.4.2 (ebf0e940d0, 2025-05-08)"
   xmlns:inkscape="http://www.inkscape.org/namespaces/inkscape"
   xmlns:sodipodi="http://sodipodi.sourceforge.net/DTD/sodipodi-0.dtd"
   xmlns="http://www.w3.org/2000/svg"
   xmlns:svg="http://www.w3.org/2000/svg">
  <defs
     id="defs1" />
  <sodipodi:namedview
     id="namedview1"
     pagecolor="#ffffff"
     bordercolor="#000000"
     borderopacity="0.25"
     inkscape:showpageshadow="2"
     inkscape:pageopacity="0.0"
     inkscape:pagecheckerboard="0"
     inkscape:deskcolor="#d1d1d1"
     inkscape:zoom="1.5833318"
     inkscape:cx="493.26364"
     inkscape:cy="541.26369"
     inkscape:window-width="1920"
     inkscape:window-height="1011"
     inkscape:window-x="0"
     inkscape:window-y="0"
     inkscape:window-maximized="1"
     inkscape:current-layer="svg1" />
  <rect
     fill="white"
     height="9.5749636"
     width="13.725042"
     x="12.794347"
     y="12.428794"
     id="rect1"
     style="fill:#ffffff;fill-opacity:1;stroke-width:0.405959"
     ry="0" />
  <title
     id="title1">scikitlearn</title>
  <path
     d="m 18.009,18.494 c -0.182,0 -0.356,0.137 -0.521,0.416 -0.159,0.287 -0.252,0.629 -0.252,0.993 0,0.031 10e-4,0.063 0.002,0.094 v -0.004 c 0.707333,-0.198667 1.061,-0.565667 1.061,-1.101 0,-0.265 -0.096,-0.397 -0.29,-0.397 z m 3.559,-0.008 c -0.276,0 -0.538,0.234667 -0.786,0.704 -0.217,0.373 -0.352,0.817 -0.37,1.292 v 0.005 c 0,0.008 -10e-4,0.018 -10e-4,0.027 0,0.126 0.042,0.243 0.112,0.336 l -0.001,-0.001 c 0.063,0.085 0.162,0.139 0.275,0.139 h 0.004 v 0 c 0.276,0 0.537,-0.235 0.781,-0.706 0.216,-0.375 0.35,-0.822 0.367,-1.298 v -0.005 c 10e-4,-0.01 10e-4,-0.021 10e-4,-0.033 0,-0.123 -0.039,-0.238 -0.106,-0.331 l 10e-4,0.002 c -0.062,-0.08 -0.158,-0.13 -0.266,-0.13 h -0.012 0.001 z M 15.743,16.24 c -0.1,0 -0.25,0.255 -0.445,0.764 -0.218,0.591 -0.416,1.308 -0.559,2.045 l -0.015,0.091 c 0.34,-0.376 0.626,-0.809 0.841,-1.281 l 0.013,-0.031 c 0.186,-0.363 0.304,-0.79 0.327,-1.241 V 16.58 16.557 c 0,-0.081 -0.017,-0.157 -0.047,-0.227 l 10e-4,0.004 C 15.82767,16.27133 15.789,16.24 15.743,16.24 Z m 6.31,-0.772 h 0.207 v 1.307 h -0.207 z m -1.803,0 h 0.207 v 1.307 H 20.248 Z M 19.497,15.43 h 0.01 c 0.088,0 0.172,0.02 0.246,0.055 L 19.75,15.483 c 0.111,0.052 0.195,0.147 0.233,0.262 l 0.001,0.003 c 0.014,0.046 0.025,0.1 0.029,0.155 v 0.002 h -0.21 c -0.006,-0.083 -0.042,-0.156 -0.097,-0.21 v 0 c -0.053,-0.047 -0.123,-0.075 -0.2,-0.075 h -0.013 0.001 -0.007 c -0.07,0 -0.135,0.024 -0.187,0.063 l 10e-4,-10e-4 c -0.057,0.046 -0.101,0.107 -0.124,0.177 l -0.001,0.003 c -0.027,0.078 -0.043,0.168 -0.043,0.262 v 0.019 -0.001 0.019 c 0,0.089 0.016,0.175 0.046,0.254 L 19.177,16.41 c 0.026,0.069 0.07,0.126 0.125,0.168 l 0.001,0.001 c 0.052,0.038 0.118,0.06 0.189,0.06 H 19.5 v 0 c 0.177,0 0.284,-0.105 0.32,-0.315 h 0.209 c -0.007,0.102 -0.036,0.196 -0.083,0.278 l 0.002,-0.003 c -0.043,0.074 -0.105,0.133 -0.18,0.171 l -0.002,0.001 c -0.075,0.038 -0.163,0.06 -0.257,0.06 h -0.013 0.001 -0.014 c -0.108,0 -0.21,-0.031 -0.296,-0.084 l 0.002,0.001 c -0.088,-0.059 -0.157,-0.141 -0.2,-0.236 l -0.001,-0.004 c -0.045,-0.102 -0.071,-0.222 -0.071,-0.347 v -0.02 0.001 -0.015 c 0,-0.099 0.015,-0.194 0.042,-0.283 l -0.002,0.007 c 0.026,-0.087 0.067,-0.163 0.12,-0.229 l -0.001,10e-4 c 0.05,-0.062 0.112,-0.112 0.184,-0.145 l 0.003,-10e-4 c 0.068,-0.032 0.148,-0.05 0.233,-0.05 h 0.006 v 0 z m -1.294,0 h 0.02 c 0.086,0 0.168,0.018 0.243,0.049 l -0.004,-0.002 c 0.069,0.028 0.124,0.076 0.162,0.136 l 0.001,0.001 c 0.035,0.059 0.056,0.13 0.056,0.206 v 0.011 -10e-4 h -0.22 c -0.008,-0.139 -0.094,-0.209 -0.26,-0.209 -0.006,0 -0.013,-0.001 -0.02,-0.001 -0.068,0 -0.132,0.019 -0.186,0.053 l 0.002,-10e-4 c -0.046,0.03 -0.075,0.082 -0.075,0.14 v 0.007 0 10e-4 c 0,0.045 0.022,0.085 0.056,0.109 v 0 c 0.053,0.036 0.116,0.063 0.185,0.075 h 0.003 l 0.2,0.049 c 0.108,0.019 0.203,0.066 0.281,0.132 l -10e-4,-10e-4 c 0.054,0.056 0.088,0.132 0.088,0.216 v 0.017 -0.001 0.008 c 0,0.079 -0.024,0.152 -0.066,0.212 l 0.001,-10e-4 c -0.047,0.065 -0.112,0.115 -0.187,0.144 l -0.003,0.001 c -0.08,0.032 -0.172,0.051 -0.269,0.051 h -0.014 10e-4 c -0.012,0.001 -0.027,0.001 -0.041,0.001 -0.13,0 -0.25,-0.042 -0.347,-0.113 l 0.002,10e-4 c -0.084,-0.08 -0.137,-0.193 -0.137,-0.318 v -0.019 0.001 h 0.22 c 0.003,0.039 0.011,0.074 0.022,0.108 l -0.001,-0.003 c 0.01,0.026 0.025,0.049 0.043,0.068 v 0 c 0.061,0.051 0.14,0.082 0.227,0.082 0.01,0 0.02,0 0.03,-10e-4 h -0.001 0.019 c 0.075,0 0.144,-0.021 0.204,-0.058 l -0.002,0.001 c 0.051,-0.031 0.084,-0.086 0.084,-0.149 v 0 0 -0.005 c 0,-0.043 -0.018,-0.081 -0.047,-0.107 v 0 c -0.043,-0.034 -0.096,-0.058 -0.153,-0.068 h -0.002 l -0.195,-0.047 c -0.079,-0.019 -0.145,-0.041 -0.209,-0.066 l 0.011,0.004 c -0.047,-0.02 -0.087,-0.046 -0.123,-0.077 v 0 C 17.77,16.038 17.745,16.003 17.729,15.964 l -10e-4,-0.002 c -0.013,-0.037 -0.02,-0.08 -0.02,-0.125 v -0.01 10e-4 -0.012 c 0,-0.113 0.053,-0.213 0.136,-0.278 l 10e-4,-10e-4 c 0.092,-0.068 0.208,-0.109 0.333,-0.109 0.01,0 0.02,0 0.031,10e-4 h -0.001 z m 4.451,-0.322 h 0.207 v 0.36 h 0.215 v 0.169 h -0.215 v 0.896 c -0.002,0.008 -0.003,0.016 -0.003,0.025 0,0.053 0.043,0.096 0.096,0.096 0.009,0 0.017,-0.001 0.025,-0.003 h -10e-4 0.013 c 0.03,0 0.059,-0.005 0.087,-0.013 l -0.002,10e-4 v 0.176 c -0.051,0.01 -0.109,0.016 -0.169,0.017 h -0.001 c -0.006,0 -0.012,10e-4 -0.019,10e-4 -0.063,0 -0.122,-0.02 -0.169,-0.055 l 0.001,0.001 c -0.04,-0.035 -0.065,-0.085 -0.065,-0.142 v -0.012 0.001 -0.987 h -0.176 v -0.17 h 0.176 z m -0.601,-0.153 h 0.207 v 0.262 h -0.207 z m -1.269,0 h 0.207 v 1.081 l 0.575,-0.569 h 0.244 l -0.455,0.452 0.535,0.855 h -0.247 l -0.446,-0.719 -0.205,0.207 v 0.512 h -0.207 z m -0.534,0 h 0.207 v 0.262 H 20.248 Z M 4.898,14.508 C 4.846,14.506 4.786,14.504 4.725,14.504 c -1.031,0 -1.966,0.408 -2.654,1.072 l 10e-4,-0.001 c -0.65,0.833 -1.042,1.895 -1.042,3.049 0,1.552 0.71,2.938 1.822,3.851 l 0.009,0.007 c 1.092,0.911 2.511,1.463 4.058,1.463 1.038,0 2.019,-0.249 2.884,-0.69 l -0.036,0.017 c 0.393,-0.823 0.622,-1.79 0.622,-2.809 0,-1.552 -0.531,-2.98 -1.421,-4.112 l 0.011,0.014 C 7.94,15.284 6.506,14.588 4.911,14.509 L 4.897,14.508 Z m 21.506,3.658 c -0.456,1.028 -1.014,1.913 -1.68,2.705 l 0.014,-0.017 c -0.009,0.055 -0.014,0.118 -0.015,0.183 v 0.001 0.026 c 0,0.191 0.066,0.366 0.177,0.505 l -10e-4,-0.002 c 0.098,0.13 0.251,0.212 0.424,0.212 h 0.001 v 0 c 0.37,0 0.892,-0.33 1.567,-0.983 -10e-4,0.05 -0.004,0.1 -0.004,0.151 0,0.182667 0.015,0.46 0.045,0.832 l 0.916,-0.215 c 0,-0.25 0.004,-0.446 0.012,-0.592 0.018,-0.245 0.047,-0.466 0.088,-0.683 l -0.006,0.037 c 0.03,-0.152 0.097,-0.286 0.191,-0.395 l -10e-4,10e-4 0.232,-0.27 c 0.153,-0.178 0.307,-0.34 0.469,-0.493 l 0.003,-0.003 c 0.061,-0.056 0.127,-0.109 0.196,-0.158 l 0.006,-0.004 c 0.043,-0.031 0.096,-0.051 0.152,-0.057 h 10e-4 c 0.069,0 0.104,0.044 0.104,0.132 -0.041,0.233 -0.109,0.442 -0.201,0.636 L 29.1,19.7 c -0.187,0.395 -0.317,0.854 -0.364,1.338 l -0.001,0.017 c -10e-4,0.011 -10e-4,0.025 -10e-4,0.038 0,0.184 0.064,0.353 0.172,0.485 l -10e-4,-10e-4 c 0.104,0.119 0.256,0.194 0.425,0.194 h 0.023 -0.001 c 0.676,-0.118 1.251,-0.486 1.636,-1.003 l 0.005,-0.007 v -0.476 c -0.451333,0.532667 -0.778,0.799333 -0.98,0.8 -0.136,0 -0.204,-0.084 -0.204,-0.25 0.048,-0.304 0.133,-0.577 0.252,-0.831 l -0.008,0.019 c 0.178,-0.382 0.304,-0.825 0.355,-1.291 l 0.002,-0.019 v -0.02 c 0,-0.145 -0.053,-0.277 -0.141,-0.379 l 0.001,0.001 c -0.083,-0.097 -0.206,-0.159 -0.343,-0.159 h -0.01 v 0 c -0.273,0.022 -0.517,0.129 -0.71,0.293 l 0.002,-0.002 c -0.397,0.321 -0.75,0.665 -1.069,1.039 l -0.009,0.011 c 0.124,-0.53 0.268,-0.98 0.442,-1.415 l -0.023,0.065 -1.011,0.195 c -0.184,0.376 -0.354,0.822 -0.485,1.285 l -0.014,0.058 c -0.044,0.163 -0.084,0.366 -0.112,0.573 l -0.003,0.027 c -0.195333,0.196667 -0.399333,0.384 -0.612,0.562 -0.078,0.061 -0.178,0.099 -0.286,0.1 v 0 h -0.01 c -0.084,0 -0.159,-0.04 -0.207,-0.102 v -10e-4 c -0.05,-0.071 -0.081,-0.159 -0.081,-0.254 0,-0.008 0,-0.017 0.001,-0.025 v 10e-4 c 0.004,-0.154 0.029,-0.301 0.073,-0.44 L 25.8,20.137 c 0.047,-0.162 0.15,-0.466 0.311,-0.913 l 0.385,-1.061 z M 20.5,7.915 c -2.774,0.136 -5.245,1.335 -7.032,3.196 l -0.003,0.003 c -3.661,3.661 -2.603,10.659 -1.36,11.903 1.006,1.005 8.241,2.303 11.904,-1.36 0.255333,-0.256667 0.498667,-0.524667 0.73,-0.804 0.118,-0.526 0.33,-0.989 0.619,-1.394 l -0.008,0.012 c -0.194,0.101 -0.42,0.178 -0.657,0.218 l -0.014,0.002 c -0.24,0.408 -0.52,0.759 -0.843,1.067 l -0.002,0.002 c -0.29,0.288 -0.6,0.557 -0.927,0.803 l -0.023,0.016 c -0.152,0.112 -0.34,0.182 -0.544,0.19 h -0.002 c -0.437333,0 -0.643,-0.385 -0.617,-1.155 -0.221,0.333 -0.473,0.621 -0.76,0.87 l -0.005,0.004 c -0.193,0.168 -0.445,0.273 -0.721,0.28 H 20.234 C 19.975,21.765 19.749,21.631 19.616,21.43 l -0.002,-0.003 c -0.13,-0.177 -0.217,-0.393 -0.241,-0.628 v -0.005 c -0.267,0.271 -0.565,0.512 -0.887,0.716 l -0.02,0.012 c -0.259,0.155 -0.571,0.246 -0.905,0.246 h -0.021 0.001 c -0.015,10e-4 -0.032,10e-4 -0.05,10e-4 -0.336,0 -0.64,-0.138 -0.858,-0.361 v 0 c -0.166,-0.174 -0.281,-0.399 -0.32,-0.648 l -10e-4,-0.007 v 0.005 c -0.292,0.28 -0.615,0.532 -0.962,0.749 l -0.025,0.015 c -0.23,0.146 -0.509,0.237 -0.809,0.246 h -0.002 -0.023 c -0.281,0 -0.531,-0.134 -0.689,-0.342 L 13.8,21.424 c -0.171,-0.235 -0.274,-0.53 -0.274,-0.848 0,-0.026 10e-4,-0.053 0.002,-0.079 v 0.004 c 0.025,-0.754 0.161,-1.468 0.393,-2.138 l -0.015,0.051 c 0.266,-0.868 0.577,-1.611 0.95,-2.317 l -0.034,0.072 1.052,-0.39 c 0.022,-0.009 0.048,-0.014 0.074,-0.016 h 10e-4 c 0.079,0 0.145,0.059 0.196,0.175 0.049,0.128 0.077,0.276 0.077,0.43 0,0.016 0,0.031 -0.001,0.047 v -0.002 c -0.001,0.597 -0.145,1.16 -0.4,1.658 l 0.01,-0.021 c -0.342,0.646 -0.747,1.202 -1.219,1.692 l 0.002,-0.002 c -0.02267,0.287333 -0.034,0.484667 -0.034,0.592 -10e-4,0.016 -10e-4,0.034 -10e-4,0.052 0,0.191 0.05,0.37 0.137,0.525 l -0.003,-0.005 c 0.069,0.126 0.201,0.211 0.352,0.211 v 0 c 0.18,-0.007 0.344,-0.067 0.48,-0.164 l -0.003,0.002 c 0.279,-0.203 0.525,-0.418 0.751,-0.652 l 0.002,-0.002 c 0.04,-0.552 0.261,-1.046 0.604,-1.429 l -0.002,0.002 c 0.312,-0.417 0.797,-0.69 1.346,-0.711 h 0.003 c 0.013,-0.001 0.029,-0.001 0.044,-0.001 0.218,0 0.417,0.076 0.575,0.202 l -0.002,-10e-4 c 0.143,0.121 0.233,0.3 0.233,0.501 v 0.021 -10e-4 c 0,0.572667 -0.607667,1.036667 -1.823,1.392 0.11,0.537 0.4,0.807 0.866,0.807 0.193,0 0.373,-0.055 0.525,-0.149 l -0.004,0.003 c 0.269,-0.187 0.505,-0.392 0.716,-0.618 l 0.002,-0.003 c 0.046,-0.342 0.16,-0.649 0.329,-0.919 l -0.006,0.01 c 0.224,-0.37 0.518,-0.675 0.866,-0.906 l 0.01,-0.007 c 0.262,-0.195 0.587,-0.322 0.939,-0.347 h 0.006 c 0.012,-0.001 0.025,-0.001 0.038,-0.001 0.313,0 0.58,0.196 0.685,0.472 l 0.002,0.005 0.846,-0.467 h 0.232 l -0.365,1.213 c -0.136,0.366 -0.235,0.791 -0.281,1.232 l -0.002,0.023 c 0,0.237 0.084,0.356 0.252,0.356 0.141,-0.013 0.265,-0.076 0.356,-0.171 v 0 c 0.13,-0.114667 0.312,-0.289667 0.546,-0.525 v 0.001 c 0.171,-0.185 0.332,-0.387 0.478,-0.599 l 0.012,-0.018 c -0.203,-0.064 -0.35,-0.249 -0.356,-0.468 v -0.001 c 0.01,-0.255 0.09,-0.489 0.221,-0.686 l -0.003,0.005 c 0.113,-0.217 0.336,-0.362 0.593,-0.362 h 0.006 v 0 c 0.011,-0.002 0.024,-0.002 0.037,-0.002 0.159,0 0.289,0.129 0.289,0.289 0,0.016 -0.001,0.031 -0.004,0.046 v -0.002 c -0.022,0.274 -0.088,0.527 -0.192,0.759 l 0.006,-0.015 c 0.458667,-0.05 0.859,-0.400667 1.201,-1.052 l 0.285,-0.012 c 0.529,-1.001 0.839,-2.189 0.839,-3.448 0,-1.907 -0.711,-3.648 -1.883,-4.972 l 0.007,0.008 c -1.18,-1.142 -2.789,-1.845 -4.563,-1.845 -0.107,0 -0.213,0.003 -0.319,0.008 z"
     id="path1"
     sodipodi:nodetypes="ccsccscccccssccscscccsccscccscccccccsccscccccccccccscccccccsssccsccccsccsccccscsccccccsccsccccsccsccccccsccccsccccscccssccsccssscccccsccsccccsccsccscccccsssccsccsccssscccccssccsccsccsccccccccccssccsccccssccscccccccccccccccccccccccccccccccsccsccsccsccccccccccsccscscscccccccccccccscccccsccscccccccccccsccscsccccccccccccscsccscccccccccsccccccccccccscccccccccccsccssscccccccsccsccccccccscscccccccsccssccccccccsccscccsccccccccccsccccccccssccccccccscsssccccccsccscc" />
</svg>
