<svg id="Layer_1" data-name="Layer 1" xmlns="http://www.w3.org/2000/svg" viewBox="0 0 957.53 612.42"><defs><style>.cls-1,.cls-2{fill:#2d2828;}.cls-1{fill-rule:evenodd;}.cls-2{font-size:138.55px;font-family:VampireWars, Vampire Wars;}.cls-3{letter-spacing:-0.03em;}.cls-4{letter-spacing:-0.01em;}.cls-5{letter-spacing:0em;}.cls-6{letter-spacing:-0.01em;}.cls-7{letter-spacing:-0.01em;}.cls-8{letter-spacing:0.01em;}</style></defs><title>dial-logo</title><path class="cls-1" d="M238.18,400.57c116.15,5.68,232.65,1.16,348.9,2.42,77.1.84,180.73,2.11,257.67-3,19.47-1.29,22.08,3.4,30.91,13.41,6.7,7.58,14.56,14.83,19.13,25.43,10.15-14.17-10.76-9.06,41.82-16.11,20.14-2.7,36.73-1,42.08-21.58l-.71-3.24c-2.92-25.54-5.68-26-31-30.88-17.7-3.39-39.5-6.12-55.88-3.31l-2.81,35.67c-9.23-2.33-7.3-4.16-15-22.37-4.55-10.74-8-17.64-13.48-28C850,330.24,841.12,313.19,830,295.7c-26.33-41.58-37.49-60.12-103.32-63.79C621,226,502.68,229.26,396,230.68c-79.08,3.2-99.88-2.29-136.17,49.9-24.88,35.78-39.8,66.54-57.35,106.15C198,396.82,200,397.21,191.67,399.4l-1.33-32.58c-9.49-2.28-3.05-6.31-29.8-3.56-50.11,5.14-54.91,5.84-58.55,34.61l-.68,3.7c5.35,19.54,20.17,18.28,39.75,20.83,43.14,5.6,33.26,1.64,44.12,16.43,4.78-10.75,13.59-19.32,20.47-26.9,10.25-11.29,11.73-13.38,32.53-11.36m142.34-12.84C471.82,302.3,628.35,253.3,764.23,268c20.06,2.17,15.25,4.42,38,44.24,10.21,17.82,19.78,38.32,31.67,52.14L792.62,276c25,24.11,58,73.25,71.09,118.47Z" transform="translate(-71.11 -228.5)"/><path class="cls-1" d="M368.51,585.25c7,5,13.71,21.62,19,30.66,11.09,18.85,5.43,21.92,31.11,23.74,35.23,2.5,69.3,4.74,104.75,5.59,36.13.87,72.5-.29,108-2.44,43.68-2.65,56.52,2.63,67.52-15.18,3.53-5.73,7.13-12.68,10-14.68l37.66-70.83c-29.22-1-67.9,3.59-98.43,4.92-96.08,4.19-206.9,1.28-302.37-5.22Zm38.41-21.86,283.14-.24C667.8,571,431.57,570.78,406.92,563.39Zm-9.77,20.5,297.7-.73c-104.63,5.61-125.33,6.82-226.64,3.74C451.36,586.39,410.29,582.17,397.15,583.89Zm31.75,21,241.32.73C637.53,613.29,458.71,614.32,428.9,604.91Zm3.54,17c38.66,0,76.79,3,116,3.06,38.86.11,78.26-3.64,116.06-3C612,633.66,484.92,633.15,432.44,621.89Z" transform="translate(-71.11 -228.5)"/><path class="cls-1" d="M764.37,596.54c86.86-18.68,59.57,11.75,89.31,3.62,8-2.2,20-7.84,28.09-11,43-17,71.87-25.88,60.37-85.19-14.53-.26-102.44,21.34-125.36,25.83-38.13,7.46-46.82,2.87-56.71,20.72-7.6,13.73-20.48,35.37-25.71,49.18Zm19.57-11.93c12.55-3,33.79-7.89,45.8-3.86,22.25,7.47,17,7.57,40.21-3.42,73.24-34.6,44.76-32.32,57.21-62.12l10.37-3.83c2.4,43.58-13.71,51.89-53.75,68.67-13.72,5.74-32.67,16.31-46.24,9.75C812.89,577.88,811.41,584.47,783.94,584.61Z" transform="translate(-71.11 -228.5)"/><path class="cls-1" d="M358,594.76l-5.82-7c-37.38-52.55-1-43.89-68.35-56.3-22.68-4.18-95.11-14-108.78-24.71-11.5.71-14.56-1.7-25.25-3.75-12.52,63.48,22.78,72.42,69.78,89.9,8.14,3,20.91,9.51,28.79,8.23,11.28-1.85,16.1-11.44,31.32-11,20.28.51,53.31,6.9,74.83,9.52,2.39-2.6,1.36-.15,3.48-4.84m-204.6-83.45c28.13,7.42,3.19,22.55,23.56,41.06,7.34,6.66,25.91,15.55,36.83,21.37,53.61,28.56,23.63-6.29,93.58,10.84-28.46-.1-28-6.26-53.82,5.18-13.6,6-30.49-3.43-44-9C165,562.51,154.21,554.65,153.42,511.31Z" transform="translate(-71.11 -228.5)"/><path class="cls-1" d="M825.42,438.56l10.18-20.45c-12,3.39-4.77-5-19,22.84l-42.88,76.88c19.56-10.8,72.72-74.16,82.38-103.62-15.38,5.44-21.51,14.3-30.65,24.35" transform="translate(-71.11 -228.5)"/><path class="cls-1" d="M286.77,485.76c7.3,4.71,3.47,2,9.43,8.42,3.3,3.55,4.4,5.23,7.89,8.62,6.79,6.58,12.23,9.65,19.26,14.8l-41.91-75.12c-6.26-11.4-5.35-20-19-24.68,3,9.23,7,14.33,11.14,23.26-8.61-11-11.23-16.8-26-23.72l-6.34-3.75c6.35,18.27,22.45,38.61,33.92,54.37,12.13,16.67,9.23,7.08,11.57,17.8" transform="translate(-71.11 -228.5)"/><text class="cls-2" transform="translate(0.08 585.36) scale(1.17 1)">D<tspan class="cls-3" x="86.73" y="0">I</tspan><tspan x="121.1" y="0">AL </tspan><tspan class="cls-4" x="304.03" y="0">C</tspan><tspan class="cls-5" x="376.63" y="0">A</tspan><tspan class="cls-6" x="454.43" y="0">BB</tspan><tspan class="cls-7" x="626.94" y="0">I</tspan><tspan class="cls-8" x="664.09" y="0">E</tspan><tspan x="736.75" y="0">S</tspan></text></svg>