<?xml version="1.0" encoding="UTF-8" standalone="no"?>
<!-- Uploaded to: SVG Repo, www.svgrepo.com, Generator: SVG Repo Mixer Tools -->

<svg
   width="800px"
   height="800px"
   viewBox="0 -1.5 20 20"
   version="1.1"
   id="svg1"
   sodipodi:docname="sketch.svg"
   inkscape:version="1.4.2 (ebf0e940d0, 2025-05-08)"
   xmlns:inkscape="http://www.inkscape.org/namespaces/inkscape"
   xmlns:sodipodi="http://sodipodi.sourceforge.net/DTD/sodipodi-0.dtd"
   xmlns="http://www.w3.org/2000/svg"
   xmlns:svg="http://www.w3.org/2000/svg">
  <sodipodi:namedview
     id="namedview1"
     pagecolor="#ffffff"
     bordercolor="#000000"
     borderopacity="0.25"
     inkscape:showpageshadow="2"
     inkscape:pageopacity="0.0"
     inkscape:pagecheckerboard="0"
     inkscape:deskcolor="#d1d1d1"
     inkscape:zoom="1"
     inkscape:cx="400"
     inkscape:cy="400"
     inkscape:window-width="1920"
     inkscape:window-height="1011"
     inkscape:window-x="0"
     inkscape:window-y="0"
     inkscape:window-maximized="1"
     inkscape:current-layer="svg1" />
  <title
     id="title1">sketch [#125]</title>
  <desc
     id="desc1">Created with Sketch.</desc>
  <defs
     id="defs1" />
  <g
     id="Page-1"
     stroke="none"
     stroke-width="1"
     fill="none"
     fill-rule="evenodd">
    <g
       id="Dribbble-Light-Preview"
       transform="translate(-420.000000, -7601.000000)"
       fill="#000000">
      <g
         id="icons"
         transform="translate(56.000000, 160.000000)">
        <path
           d="M368.238325,7443.34969 L369.399325,7446.16397 L366.733325,7446.16397 L368.238325,7443.34969 Z M377.584325,7448.2242 L380.577325,7448.2242 L375.098325,7454.24832 L377.584325,7448.2242 Z M372.741325,7454.26274 L367.100325,7448.2242 L370.249325,7448.2242 L372.741325,7454.26274 Z M371.568325,7446.16397 L370.293325,7443.07362 L377.540325,7443.07362 L376.265325,7446.16397 L371.568325,7446.16397 Z M375.415325,7448.2242 L373.917325,7451.85536 L372.418325,7448.2242 L375.415325,7448.2242 Z M381.260325,7446.16397 L378.434325,7446.16397 L379.611325,7443.31055 L381.260325,7446.16397 Z M383.787325,7446.43592 L380.933325,7441.26783 C380.817325,7441.08653 380.661325,7441 380.482325,7441 C380.293325,7441 380.077325,7441.01339 379.853325,7441.01339 L368.188325,7441.01339 C367.967325,7441.01339 367.754325,7441.00515 367.567325,7441.00515 C367.377325,7441.00515 367.213325,7441.07314 367.094325,7441.26783 L364.198325,7446.75217 C363.892325,7447.25383 363.944325,7447.83379 364.327325,7448.27571 L373.021325,7457.55499 C373.277325,7457.85166 373.630325,7458 373.983325,7458 C374.342325,7458 374.701325,7457.84857 374.959325,7457.54366 L383.681325,7448.01509 C384.063325,7447.5639 384.106325,7446.9345 383.787325,7446.43592 L383.787325,7446.43592 Z"
           id="sketch-[#125]"
           style="fill:#ffffff;fill-opacity:1" />
      </g>
    </g>
  </g>
</svg>
